<?xml version="1.0" encoding="iso-8859-1"?>
<!-- Uploaded to: SVG Repo, www.svgrepo.com, Generator: SVG Repo Mixer Tools -->
<svg fill="hsl(193,8%,75%,1)" height="800px" width="800px" version="1.1" id="Layer_1" xmlns="http://www.w3.org/2000/svg" xmlns:xlink="http://www.w3.org/1999/xlink" 
	 viewBox="0 0 512 512" xml:space="preserve">
<g>
	<g>
		<path d="M357.63,119.907c-26.533-26.873-61.926-41.955-99.659-42.465c-39.282-0.496-77.577,15.748-105.133,44.661
			c-3.112,3.265-2.987,8.433,0.278,11.545c3.265,3.111,8.435,2.988,11.545-0.278c24.432-25.637,58.362-40.089,93.091-39.599
			c33.416,0.453,64.761,13.81,88.259,37.61c23.521,23.822,36.474,55.381,36.474,88.862c0,26.958-8.371,52.692-24.209,74.42
			c-0.143,0.196-0.276,0.397-0.402,0.605l-0.998,1.661c-3.899,6.491-7.479,12.45-10.77,17.996c-2.302,3.879-1.023,8.889,2.855,11.19
			c1.307,0.775,2.743,1.144,4.159,1.144c2.788,0,5.505-1.428,7.03-4c3.277-5.523,6.841-11.456,10.724-17.92l0.814-1.355
			c17.749-24.477,27.127-53.425,27.127-83.742C398.814,182.438,384.188,146.805,357.63,119.907z"/>
	</g>
</g>
<g>
	<g>
		<path d="M340.905,340.129c-4.009-2.06-8.933-0.481-10.995,3.531c-7.356,14.315-11.749,26.121-14.148,38.268H196.238
			c-4.863-24.654-17.421-45.557-40.65-84.227l-1.461-2.431c-0.125-0.208-0.259-0.409-0.402-0.606
			c-15.838-21.728-24.209-47.462-24.209-74.42c0-21.791,5.819-43.38,16.83-62.432c2.257-3.904,0.92-8.899-2.984-11.155
			c-3.903-2.257-8.898-0.921-11.155,2.984c-12.443,21.533-19.02,45.947-19.02,70.603c0,30.316,9.378,59.264,27.127,83.742
			l1.277,2.125c23.336,38.849,34.733,57.826,38.853,80.175c-7.504,4.854-12.484,13.29-12.484,22.873
			c0,7.418,2.984,14.148,7.812,19.064c-4.828,4.916-7.812,11.647-7.812,19.064c0,15.015,12.216,27.231,27.229,27.231h11.417
			C212.696,496.319,232.792,512,256,512c23.208,0,43.304-15.68,49.395-37.483h11.417c15.015,0,27.229-12.216,27.229-27.231
			c0-7.418-2.984-14.148-7.812-19.064c4.827-4.916,7.812-11.647,7.812-19.064c0-9.583-4.98-18.02-12.484-22.873
			c2.04-11.092,5.916-21.612,12.878-35.161C346.497,347.113,344.915,342.19,340.905,340.129z M256,495.669
			c-14.214,0-26.716-8.625-32.117-21.152h64.234C282.714,487.044,270.212,495.669,256,495.669z M294.103,436.388h22.708
			c6.01,0,10.898,4.89,10.898,10.898c0,6.01-4.89,10.899-10.898,10.899H195.187c-6.01,0-10.898-4.89-10.898-10.899
			s4.89-10.898,10.898-10.898h66.631c4.51,0,8.166-3.656,8.166-8.166s-3.656-8.166-8.166-8.166h-66.631
			c-6.01,0-10.898-4.89-10.898-10.898c0-4.921,3.279-9.086,7.766-10.436c0.421-0.126,0.851-0.221,1.286-0.295
			c0.131-0.023,0.261-0.042,0.393-0.06c0.48-0.063,0.964-0.109,1.453-0.109h121.623c0.49,0,0.973,0.045,1.453,0.109
			c0.133,0.017,0.263,0.038,0.395,0.061c0.431,0.073,0.858,0.168,1.276,0.293c4.491,1.347,7.775,5.513,7.775,10.438
			c0,6.01-4.89,10.898-10.898,10.898h-22.708c-4.51,0-8.166,3.656-8.166,8.166C285.938,432.733,289.593,436.388,294.103,436.388z"/>
	</g>
</g>
</svg>